# xmcd
#
# Track frame offsets:
#	150
#	16576
#	31689
#	48489
#	62252
#	83423
#	102193
#	118624
#	133718
#	150566
#	164305
#	185463
#
# Disc length: 2723 seconds
#
# Revision: 1
# Processed by: cddbd v1.5.2PL0 Copyright (c) Steve Scherf et al.
# Submitted via: audiograbber 1.83.01
#
DISCID=800aa10c
DTITLE=Chartbuster - CB20149
DYEAR=1900
DGENRE=Karaoke
TTITLE0=South Sixty Five - Baby's Got My Number (Vocal Version)
TTITLE1=Dixie Chicks - You Can't Hurry Love (Vocal Version)
TTITLE2=Randy Travis - Man Ain't Made Of Stone (Vocal Version)
TTITLE3=Chalee Tennison - Handful Of Water (Vocal Version)
TTITLE4=Gary Allan - Smoke Rings In The Dark (Vocal Version)
TTITLE5=Lace - I Want A Man (Vocal Version)
TTITLE6=South Sixty Five - Baby's Got My Number
TTITLE7=Dixie Chicks - You Can't Hurry Love
TTITLE8=Randy Travis - Man Ain't Made Of Stone
TTITLE9=Chalee Tennison - Handful Of Water
TTITLE10=Gary Allan - Smoke Rings In The Dark
TTITLE11=Lace - I Want A Man
EXTD=
EXTT0=
EXTT1=
EXTT2=
EXTT3=
EXTT4=
EXTT5=
EXTT6=
EXTT7=
EXTT8=
EXTT9=
EXTT10=
EXTT11=
PLAYORDER=
